<svg xmlns="http://www.w3.org/2000/svg" version="1.1" width="512.000000pt" height="512.000000pt"><svg version="1.0" xmlns="http://www.w3.org/2000/svg" width="512.000000pt" height="512.000000pt" viewBox="0 0 512.000000 512.000000">
<g transform="translate(0.000000,512.000000) scale(0.100000,-0.100000)" fill="#000000" stroke="none">
<path d="M1055 5110 c-22 -4 -58 -11 -80 -14 -127 -20 -336 -113 -475 -211
-257 -181 -439 -484 -488 -810 -9 -65 -9 -2953 0 -3025 40 -294 186 -564 414
-759 109 -94 386 -241 454 -241 9 0 20 -3 24 -8 4 -4 11 -7 14 -8 4 0 41 -7
82 -15 63 -12 309 -14 1570 -14 1406 0 1499 1 1570 18 41 10 83 20 94 22 119
27 332 136 445 229 49 41 153 151 199 210 72 96 177 307 197 400 46 216 43 88
43 1666 1 1532 1 1510 -41 1670 -38 144 -114 295 -216 434 -43 58 -198 216
-212 216 -4 0 -14 6 -21 13 -43 42 -209 129 -318 166 -202 70 -75 65 -1725 67
-820 1 -1508 -2 -1530 -6z m2969 -244 c86 -11 99 -14 184 -41 65 -21 226 -103
265 -136 125 -103 162 -142 228 -237 86 -123 147 -282 165 -432 4 -30 7 -698
7 -1485 -1 -1413 -1 -1431 -21 -1523 -44 -192 -137 -369 -262 -491 -98 -96
-243 -182 -383 -226 -86 -28 -111 -33 -214 -43 -92 -9 -2835 -7 -2898 2 -260
39 -490 169 -636 361 -13 17 -26 32 -29 35 -12 11 -60 91 -88 147 -36 70 -78
213 -88 298 -10 81 -11 2798 -1 2902 14 157 80 332 170 453 95 128 271 278
390 334 103 48 240 81 362 89 104 6 2797 -1 2849 -7z"></path>
<path d="M1138 4478 c-4 -8 -3 -2968 1 -2969 3 -1 75 -2 159 -3 l152 -2 0
1488 0 1488 -155 0 c-85 0 -156 -1 -157 -2z"></path>
<path d="M1830 3690 c0 -6 5 -18 10 -28 6 -9 50 -107 99 -217 108 -245 325
-732 356 -800 13 -27 62 -138 110 -245 47 -107 98 -220 112 -250 14 -30 59
-131 100 -225 42 -93 89 -199 105 -235 56 -121 78 -172 78 -181 0 -5 -9 -31
-21 -57 -12 -26 -25 -56 -30 -67 -4 -11 -23 -54 -42 -95 -19 -41 -53 -118 -76
-171 -51 -116 -85 -159 -146 -188 -75 -35 -158 -43 -297 -27 l-68 8 0 -121 c0
-108 2 -121 18 -122 9 0 24 -2 32 -4 100 -22 304 -28 370 -10 14 3 30 7 35 9
72 18 158 62 209 107 74 65 117 149 244 474 67 171 133 339 147 375 15 36 28
70 29 75 2 6 7 19 11 30 22 54 481 1228 500 1280 12 33 55 143 96 245 40 102
74 187 75 190 0 3 4 14 9 25 39 96 85 217 85 225 0 7 -56 10 -156 8 l-155 -3
-29 -70 c-15 -38 -83 -212 -150 -385 -68 -173 -128 -328 -135 -345 -7 -16 -27
-68 -45 -115 -18 -47 -39 -98 -45 -115 -7 -16 -83 -209 -168 -428 -85 -219
-157 -393 -160 -385 -7 18 -292 680 -311 721 -7 17 -48 111 -89 207 -173 404
-360 838 -377 878 l-19 42 -155 0 c-99 0 -156 -4 -156 -10z"></path>
</g>
</svg><style>@media (prefers-color-scheme: light) { :root { filter: none; } }
</style></svg>